<?xml version="1.0" encoding="UTF-8" standalone="no"?>
<svg
   xmlns:dc="http://purl.org/dc/elements/1.1/"
   xmlns:cc="http://creativecommons.org/ns#"
   xmlns:rdf="http://www.w3.org/1999/02/22-rdf-syntax-ns#"
   xmlns:svg="http://www.w3.org/2000/svg"
   xmlns="http://www.w3.org/2000/svg"
   xmlns:sodipodi="http://sodipodi.sourceforge.net/DTD/sodipodi-0.dtd"
   xmlns:inkscape="http://www.inkscape.org/namespaces/inkscape"
   version="1.1"
   id="svg2"
   viewBox="0 0 744.09448819 1052.3622047"
   width="210mm"
   height="297mm"
   inkscape:version="0.91 r13725"
   sodipodi:docname="drawing.svg">
  <sodipodi:namedview
     pagecolor="#ffffff"
     bordercolor="#666666"
     borderopacity="1"
     objecttolerance="10"
     gridtolerance="10"
     guidetolerance="10"
     inkscape:pageopacity="0"
     inkscape:pageshadow="2"
     inkscape:window-width="1366"
     inkscape:window-height="703"
     id="namedview3194"
     showgrid="false"
     inkscape:zoom="7.85"
     inkscape:cx="179.25578"
     inkscape:cy="811.22965"
     inkscape:window-x="0"
     inkscape:window-y="0"
     inkscape:window-maximized="1"
     inkscape:current-layer="svg2" />
  <defs
     id="defs8">
    <inkscape:perspective
       sodipodi:type="inkscape:persp3d"
       inkscape:vp_x="0 : 526.1811 : 1"
       inkscape:vp_y="0 : 1000 : 0"
       inkscape:vp_z="744.09449 : 526.1811 : 1"
       inkscape:persp3d-origin="372.04724 : 350.7874 : 1"
       id="perspective3196" />
  </defs>
  <metadata
     id="metadata4">
    <rdf:RDF>
      <cc:Work
         rdf:about="">
        <dc:format>image/svg+xml</dc:format>
        <dc:type
           rdf:resource="http://purl.org/dc/dcmitype/StillImage" />
        <dc:title />
      </cc:Work>
    </rdf:RDF>
  </metadata>
  <path
     id="path3288"
     d="m 194.33981,234.64456 -0.64012,2.74363 -0.85348,2.00496 0.32005,1.79392 0.85349,3.37678 -0.42674,1.58286 -2.98719,2.5326 -1.06686,1.05523 -2.13371,1.05525 -3.09388,0.73867 -1.81365,1.16076 -1.92034,0.73868 -4.26742,-0.31657 -1.92034,-0.73868 -1.28022,-1.26629 -1.28023,-2.00496 -0.96017,-0.94972 -1.92034,-3.79888 -3.41393,-2.95468 -0.64012,-0.94972 0,-1.37182 2.45377,-4.00992 2.02702,-4.43202 1.17355,-1.05525 1.49359,-0.42209 3.41393,0.31657 1.28023,-0.52762 2.45377,-3.48231 0.96017,-0.63314 4.69416,0.21104 2.24039,0.63315 2.77383,2.84916 2.56045,2.74363 z"
     style="fill:#8b4513;fill-rule:evenodd;stroke:#000000;stroke-width:0.6525355;stroke-linecap:butt;stroke-linejoin:miter;stroke-miterlimit:4;stroke-dasharray:none;stroke-opacity:1;fill-opacity:1"
     inkscape:connector-curvature="0" />
  <path
     id="path3290"
     d="m 182.39104,233.48379 -0.38162,1.32669 0.0615,1.2059 0.64012,1.05524 0.96017,0.8442 0.96017,0.52762 1.28022,0.10552 1.28023,-0.63314 0.53343,-0.8442 0.64011,-1.26629 -0.21338,-1.05524 -0.42673,-1.2663 -0.85348,-0.8442 -1.17355,-0.42209 -1.17354,0 -0.85348,0.21105 z"
     style="fill:#3c1900;fill-rule:evenodd;stroke:#000000;stroke-width:0.6525355;stroke-linecap:butt;stroke-linejoin:miter;stroke-miterlimit:4;stroke-dasharray:none;stroke-opacity:1;fill-opacity:1"
     inkscape:connector-curvature="0"
     sodipodi:nodetypes="ccccccccccccccccc" />
  <path
     id="path3292"
     d="m 183.24452,244.24728 1.28023,-0.31657 0.96016,0.31657 0.64012,0.73866 0,0.63315 -0.21338,0.73867 -0.85348,0.63315 -1.81365,-0.10552 -0.64012,-0.52763 -0.21336,-0.84419 0.32005,-0.42209 z"
     style="fill:#3c1900;fill-rule:evenodd;stroke:#000000;stroke-width:0.67428672;stroke-linecap:butt;stroke-linejoin:miter;stroke-miterlimit:4;stroke-dasharray:none;stroke-opacity:1;fill-opacity:1"
     inkscape:connector-curvature="0" />
  <path
     id="path3294"
     d="m 171.93585,236.43848 -0.73036,0.87473 -0.2298,0.81366 0.0903,0.94902 0.2298,0.95041 0.7468,0.84419 0.64012,0 0.74679,-0.21104 0.64011,-0.94972 0.42675,-1.05524 -0.21337,-0.99416 -0.21338,-0.48318 -0.42673,-0.63315 -0.64012,-0.31657 z"
     style="fill:#3c1900;fill-rule:evenodd;stroke:#000000;stroke-width:0.6525355;stroke-linecap:butt;stroke-linejoin:miter;stroke-miterlimit:4;stroke-dasharray:none;stroke-opacity:1;fill-opacity:1"
     inkscape:connector-curvature="0"
     sodipodi:nodetypes="ccccccccccccccc" />
</svg>
