<?xml version="1.0" encoding="UTF-8" standalone="no"?>
<svg
   xmlns:dc="http://purl.org/dc/elements/1.1/"
   xmlns:cc="http://creativecommons.org/ns#"
   xmlns:rdf="http://www.w3.org/1999/02/22-rdf-syntax-ns#"
   xmlns:svg="http://www.w3.org/2000/svg"
   xmlns="http://www.w3.org/2000/svg"
   version="1.1"
   id="svg3424"
   viewBox="0 0 744.09448819 1052.3622047"
   width="210mm"
   height="297mm">
  <defs
     id="defs3430" />
  <metadata
     id="metadata3426">
    <rdf:RDF>
      <cc:Work
         rdf:about="">
        <dc:format>image/svg+xml</dc:format>
        <dc:type
           rdf:resource="http://purl.org/dc/dcmitype/StillImage" />
        <dc:title></dc:title>
      </cc:Work>
    </rdf:RDF>
  </metadata>
  <path
     id="path3320"
     d="m 333.92213,478.73924 2.62465,0.23767 2.62465,0.95071 2.18721,1.42607 2.25128,3.36949 1.02955,2.57244 1.20297,4.81295 0.76552,4.45645 1.31231,3.08981 0.65617,3.08979 1.09361,2.85213 2.83012,3.17384 5.26258,4.43182 2.84336,2.13909 2.40594,2.1391 1.96849,2.85213 0.43745,1.90142 0.21872,2.61443 0.21872,1.18839 -1.31233,0.23768 1.31233,2.13909 -0.87489,0.47536 -18.37258,-0.47536 0.21872,4.04052 -2.18721,0.95069 0.87488,2.61445 0.82021,1.60432 0.2734,1.12897 -11.31882,-0.1188 2.56996,-5.46657 -3.28081,0 0.21872,2.85212 c 0,0 -1.53105,0.23767 -0.87488,0.23767 l -0.80457,-0.29769 -0.46398,-0.50417 0,-2.43693 -3.46612,-0.0537 1.61019,1.8183 0.92796,2.10078 0.38665,1.68063 -11.21279,-0.168 0.38665,-1.42854 1.00528,-1.76466 1.08261,-1.5966 0.46398,-0.67226 -2.0879,-0.25209 -0.7733,-0.42015 -0.61863,-0.92435 0.0774,-2.68902 -18.17247,0.25211 -0.38664,-1.17644 0.54131,-0.92435 0.30932,-0.2521 -1.0053,-0.42016 0.232,-2.35287 0.23198,-1.5966 0.30933,-1.26049 0.85062,-1.34449 0.6573,-1.21846 1.73992,-1.97474 3.55716,-2.9411 3.35146,-2.6133 3.17146,-2.85213 1.25765,-0.83187 0.49213,-1.18839 0.76552,-1.48548 0.76553,-2.4362 0.82019,-3.50572 0.76552,-2.25794 1.03893,-2.37677 0.2734,-2.91155 0.60149,-2.49559 2.29657,-4.99123 1.36701,-1.72316 3.00743,-2.02026 2.95272,-0.95071 z"
     style="fill:#d5d5d5;fill-rule:evenodd;stroke:#000000;stroke-width:0.50206089;stroke-linecap:butt;stroke-linejoin:miter;stroke-miterlimit:4;stroke-dasharray:none;stroke-opacity:1;fill-opacity:1" />
  <path
     id="path3377"
     d="m 302.26222,525.79929 1.85914,-0.1188 0.0547,-1.48549 0.49213,-2.49559 1.0936,-2.07968 2.07784,-2.25793 1.91382,-1.72317 3.3355,-2.55503 2.18722,-1.84198 2.62464,-1.90142 1.09361,-1.66374 1.36701,-2.25794 0.60148,-1.30722 0.49213,-1.842 0.10932,-4.15934 -0.10932,-2.55503 -0.21873,-0.41594 -0.92956,2.49562 -0.43745,1.12896 -0.76552,3.32747 -0.71085,2.25794 -0.82019,1.60432 -0.2734,1.30722 -1.53105,0.77246 -1.64041,1.5449 -2.40594,1.9014 -3.17146,2.55503 -2.13252,1.842 -2.07786,1.842 -0.23749,0.49997 -0.63739,1.10435 -0.82021,1.30723 -0.76552,2.43618 -0.21873,2.7927 z"
     style="fill:#000000;fill-rule:evenodd;stroke:#000000;stroke-width:0.33470726;stroke-linecap:butt;stroke-linejoin:miter;stroke-miterlimit:4;stroke-dasharray:none;stroke-opacity:1;fill-opacity:1" />
  <path
     id="path3379"
     d="m 345.9518,495.43606 -0.10933,4.09993 0.5468,3.62456 0.76553,2.1391 0.71083,1.42606 1.0936,1.66375 2.13254,1.96083 2.18722,1.60431 2.84338,2.37677 c 0,0 1.53105,1.54491 1.80443,1.54491 0.27341,0 2.13254,2.13909 2.13254,2.13909 l 1.25765,1.06955 0.8202,1.42607 0.76553,1.5449 0.38276,1.48547 -0.16404,1.48548 0,0.89129 2.02318,-0.1188 0.38276,0 0,-3.08981 -0.60149,-2.1985 -1.64041,-2.85213 -1.20297,-1.06955 -2.89806,-2.31735 -1.69507,-1.48548 -2.13254,-1.48549 -1.64041,-1.54488 -1.42169,-1.24781 -1.91382,-2.07968 -0.71084,-0.89129 -1.31233,-3.74342 -0.60147,-2.25791 -0.60148,-1.842 z"
     style="fill:#000000;fill-rule:evenodd;stroke:#000000;stroke-width:0.16735363;stroke-linecap:butt;stroke-linejoin:miter;stroke-miterlimit:4;stroke-dasharray:none;stroke-opacity:1;fill-opacity:1" />
  <path
     id="path3381"
     d="m 322.48472,489.27989 c 0.1546,0 2.16524,-3.23521 2.16524,-3.23521 l 1.73992,-1.42854 0.57997,0 0.88929,0.42015 1.66258,0.42016 0.88928,0.2521 6.53436,0.12596 1.27595,-0.50419 1.27594,-0.25209 1.12128,-0.37815 0.50264,-0.0841 1.15994,0.7983 1.39193,1.97474 1.23728,1.84869 0.23199,0.042 -0.96661,-3.52933 -0.65731,-1.17644 -1.08263,-1.72265 -1.08261,-1.38652 -2.66787,-1.72263 -2.31989,-0.79831 -3.94381,-0.25209 -2.12657,0.67225 -1.70124,0.84031 -2.3199,1.38652 -1.39193,2.01677 -1.31461,2.3949 -0.69596,2.10078 z"
     style="fill:#000000;fill-rule:evenodd;stroke:#000000;stroke-width:0.16735363;stroke-linecap:butt;stroke-linejoin:miter;stroke-miterlimit:4;stroke-dasharray:none;stroke-opacity:1;fill-opacity:1" />
  <path
     id="path3383"
     d="m 326.15788,493.31339 1.77859,1.13443 1.15994,-1.6386 -1.66258,-1.89071 z"
     style="fill:#329dc9;fill-opacity:1;fill-rule:evenodd;stroke:#000000;stroke-width:0.16735363;stroke-linecap:butt;stroke-linejoin:miter;stroke-miterlimit:4;stroke-dasharray:none;stroke-opacity:1" />
  <path
     id="path3385"
     d="m 328.28444,489.53198 1.73992,2.60498 0.92796,-0.75628 0.73464,-0.21008 1.08261,-0.042 -0.0774,-3.31924 -1.35327,0 -1.19862,0.63023 -1.1986,0.75628 z"
     style="fill:#329dc9;fill-opacity:1;fill-rule:evenodd;stroke:#000000;stroke-width:0.16735363;stroke-linecap:butt;stroke-linejoin:miter;stroke-miterlimit:4;stroke-dasharray:none;stroke-opacity:1" />
  <path
     id="path3387"
     d="m 335.0508,487.64127 -0.15461,3.36126 0.88929,0.0841 0.69596,0.29411 0.92797,0.46217 0.30931,0.21007 1.58525,-2.35287 -1.15994,-0.79831 -1.50792,-0.75627 z"
     style="fill:#329dc9;fill-opacity:1;fill-rule:evenodd;stroke:#000000;stroke-width:0.16735363;stroke-linecap:butt;stroke-linejoin:miter;stroke-miterlimit:4;stroke-dasharray:none;stroke-opacity:1" />
  <path
     id="path3389"
     d="m 340.23188,490.91851 -1.58526,1.89071 0.81195,1.55458 2.01057,-1.17645 -0.65728,-1.59659 z"
     style="fill:#329dc9;fill-opacity:1;fill-rule:evenodd;stroke:#000000;stroke-width:0.16735363;stroke-linecap:butt;stroke-linejoin:miter;stroke-miterlimit:4;stroke-dasharray:none;stroke-opacity:1" />
  <path
     id="path3391"
     d="m 323.95398,532.72417 5.10376,0.168 1.27595,1.17644 0.46396,0.71427 0.81197,1.5966 0.46398,2.22684 -11.17413,-0.2521 0.46397,-1.42853 1.31461,-2.35289 z"
     style="fill:#000000;fill-rule:evenodd;stroke:#000000;stroke-width:0.16735363;stroke-linecap:butt;stroke-linejoin:miter;stroke-miterlimit:4;stroke-dasharray:none;stroke-opacity:1;fill-opacity:1" />
  <path
     id="path3393"
     d="m 338.14398,532.89224 6.34103,0.0841 0.50264,1.47055 0.6573,2.1428 0.81196,1.09242 0.11591,1.05039 -11.29012,-0.042 z"
     style="fill:#000000;fill-rule:evenodd;stroke:#000000;stroke-width:0.16735363;stroke-linecap:butt;stroke-linejoin:miter;stroke-miterlimit:4;stroke-dasharray:none;stroke-opacity:1;fill-opacity:1" />
  <path
     id="path3395"
     d="m 321.34565,502.9823 -0.10933,18.83591 1.36701,0.6536 -0.92957,1.30722 -0.76552,1.06955 0.21265,1.11156 -17.06025,-0.23768 0.55287,-3.36949 0.49213,-1.33692 0.8202,-1.5449 3.03475,-3.0601 5.76878,-4.66442 3.08943,-2.34704 1.96849,-2.91155 1.03893,-2.04997 z"
     style="fill:#918d91;fill-rule:evenodd;stroke:#000000;stroke-width:0.16735363;stroke-linecap:butt;stroke-linejoin:miter;stroke-miterlimit:4;stroke-dasharray:none;stroke-opacity:1;fill-opacity:1" />
  <path
     id="path3399"
     d="m 345.89712,501.37797 0.16404,19.96489 -0.71085,0.89127 -0.49212,0.2971 1.20297,1.66374 0.60148,1.60432 0,0.17826 16.40409,-0.11881 0,-3.0898 -0.82021,-2.13908 -1.14829,-1.66374 -1.39435,-1.36665 -1.12094,-1.06955 -2.95273,-2.55503 -3.71827,-3.03037 -2.40593,-1.96084 -1.14829,-1.2478 -1.47636,-3.26807 -0.43744,-1.90141 z"
     style="fill:#918d91;fill-rule:evenodd;stroke:#000000;stroke-width:0.16735363;stroke-linecap:butt;stroke-linejoin:miter;stroke-miterlimit:4;stroke-dasharray:none;stroke-opacity:1;fill-opacity:1" />
  <path
     id="path3401"
     d="m 322.8767,522.59065 21.87213,0 1.96849,3.80283 0.10933,5.70426 -1.74977,0.71303 -10.2799,0.11881 -0.21872,3.32746 -0.76553,-0.1188 -1.09361,-0.59419 -0.10932,-2.85212 -10.60798,-0.1188 -1.53106,-0.59419 -0.32808,-1.30723 0.32808,-2.73329 0.54681,-2.73329 z"
     style="fill:#9a9f9f;fill-rule:evenodd;stroke:#000000;stroke-width:0.16735363;stroke-linecap:butt;stroke-linejoin:miter;stroke-miterlimit:4;stroke-dasharray:none;stroke-opacity:1;fill-opacity:1" />
</svg>
